# xmcd
#
# Track frame offsets:
#	150
#	18967
#	39786
#	54891
#	70681
#	88518
#	108795
#	125554
#	142671
#	165032
#
# Disc length: 2435 seconds
#
# Revision: 0
# Processed by: cddbd v1.5.2PL0 Copyright (c) Steve Scherf et al.
# Submitted via: dBpowerAMP V4.0
#
DISCID=6309810a
DTITLE=Various Artist - Today's Country Christmas
DYEAR=2006
DGENRE=Christmas
TTITLE0=Lonestar - Santa Claus Is Coming To Town
TTITLE1=Kenny Chesney - All I Want For Christmas Is A Real Good Tan
TTITLE2=Alan Jackson - I Only Want You For Christmas
TTITLE3=Mary Chapin Capenter - Bells Are Ringing
TTITLE4=Diamond Rio - Christmas Spirit
TTITLE5=Sara Evans - Go Tell It On The Mountain
TTITLE6=Brooks and Dunn - It Won't Be Christmas Without You
TTITLE7=Martina McBride - What Child Is This
TTITLE8=Brad Paisley - 364 Days To Go
TTITLE9=Alabama - The Blessings
EXTD=This is a Christmas album, but there is not that selection for genre.
EXTT0=
EXTT1=
EXTT2=
EXTT3=
EXTT4=
EXTT5=
EXTT6=
EXTT7=
EXTT8=
EXTT9=
PLAYORDER=
